<?xml version="1.0" encoding="UTF-8"?><svg id="Layer_1" xmlns="http://www.w3.org/2000/svg" viewBox="0 0 173.4 173.4"><defs><style>.cls-1{fill:#000;stroke-width:0px;}</style></defs><path class="cls-1" d="M173.4,84.2c-.2-8.6-1.7-16.9-4.3-24.7,0,0,0,0,0-.1-1.9-5.8-4.5-11.4-7.5-16.6-10.1-17.2-26-30.6-45-37.5-9.3-3.4-19.3-5.3-29.8-5.3h-.4C56.5.1,30.3,15.3,14.8,38.2c-.4.6-.8,1.2-1.1,1.7-.3.4-.5.8-.8,1.2-.2.4-.5.8-.7,1.1-.3.5-.6,1.1-.9,1.6-.3.5-.6,1-.9,1.6-.3.6-.7,1.2-1,1.9-.2.3-.3.7-.5,1,0,0,0,0,0,0C3.2,60,0,73,0,86.7c0,45.5,35,82.8,79.5,86.4,0,0,0,0,0,0,2.3.2,4.7.3,7.1.3s5.5-.1,8.2-.4c3.1-.3,6.2-.8,9.2-1.4,0,0,.1,0,.2,0,1-.2,2.1-.5,3.1-.7.7-.2,1.4-.3,2.1-.5,1.8-.5,3.6-1.1,5.4-1.7.6-.2,1.1-.4,1.7-.6.8-.3,1.6-.6,2.3-.9,0,0,.2,0,.2,0,.6-.2,1.3-.5,1.9-.8,0,0,0,0,0,0,.4-.2.8-.3,1.1-.5.2,0,.4-.2.5-.2.5-.2,1.1-.5,1.6-.8,1-.5,2.1-1,3.1-1.6,0,0,.2,0,.3-.1.4-.2.7-.4,1.1-.6.5-.3,1-.6,1.6-.9,1.4-.8,2.8-1.7,4.1-2.5,22.7-15.1,37.9-40.6,38.7-69.8,0-.8,0-1.7,0-2.5s0-1.7,0-2.5ZM32.2,86.5c0-8.8,0-17.7,0-26.5,0-3.9.2-4.1,4.2-4.1,1.2,0,2.4,0,3.6,0,3.6,0,3.9.4,3.9,4,0,6.9,0,13.7,0,20.5,0,11.1,0,22.2,0,33.2,0,3.3-.3,3.7-3.7,3.7-1.5,0-3,0-4.5,0-3.3,0-3.5-.2-3.5-3.6,0-9.1,0-18.2,0-27.2ZM80,111.3c-1.9,4.6-6.2,6.5-12.8,6.5s-12.9-4.4-13.8-13.8c-.7-7.5-.4-7.8,7-7.5,2.5,0,3.1.7,2.9,3.2-.1,1.8,0,3.7.4,5.5.4,1.9,1.4,3.2,3.5,3.2,2.2,0,3.5-1.1,3.8-3.1,1.2-7.5,0-12.3-6.9-15.8-10.3-5.1-14.1-17.3-8.9-27.5.2-.4.4-.9.7-1.2,3.7-5.2,9.1-5.8,14.7-5.2,5.2.5,8.6,3.4,10.1,8.5.8,2.9,1,5.8,1,8.8s-1,2.8-2.8,2.8c-1.7,0-3.4,0-5,0-1.8,0-2.6-1.1-2.4-2.8.2-1.7.1-3.3-.2-5-.3-1.8-1.4-2.9-3.2-3-1.9-.1-3.4.7-3.8,2.6-1.4,6.8-.5,11.9,5.9,14.7,13.2,5.8,13.7,19.5,9.6,29.3ZM91.7,114c0-9.2,0-18.5,0-27.7s0-17.9,0-26.8c0-3.3.4-3.7,3.8-3.7,1.4,0,2.9,0,4.3,0,3.3,0,3.6.4,3.6,3.8,0,6.5,0,13.1,0,19.6v34.2c0,3.9-.1,4-4.1,4-1.4,0-2.9,0-4.3,0-2.9,0-3.3-.4-3.3-3.3ZM124.9,86.8c.2,5.1-.3,10.5.5,15.8.1.9.3,1.9.5,2.8.5,1.9,1.5,3.2,3.7,3.1,2.1,0,2.8-1.5,3.2-3.3.4-1.8.4-3.6.4-5.5,0-2.8.4-3.2,3.1-3.3,1.4,0,2.7,0,4.1,0,2.1,0,3.2,1.1,3,3.1-.2,3-.4,6-1.3,9-1.5,5-4.6,8.4-10,9-6.2.7-11.8-.4-15.2-6.5-2.3-4-3.1-8.4-3.6-12.8-1-9.6-1-19.3.9-28.8.3-1.5.8-3.1,1.3-4.6,3.1-8.2,11.2-11.9,19.5-8.8,3.1,1.2,5.2,3.3,6.5,6.3,1.5,3.4,1.8,7.1,2,10.8,0,1.8-.9,2.8-2.8,2.8-.2,0-.3,0-.5,0q-6.5.2-7-6.1c-.3-3.6-1.5-5.3-3.6-5.4-2.2,0-3.7,1.8-4.1,5.3-.8,5.6-.4,11.1-.5,16.9Z"/></svg>